# xmcd
# 
# Track frame offsets:
#     150
#     11980
#     24035
#     37667
#     51802
#     63587
#     82742
#     96052
#     107190
#     120927
#     132615
#     145062
# 
# Disc length: 2187
# 
# Revision: 5
# Processed by: cddbd v1.5.2PL0 Copyright (c) Steve Scherf et al.
# Submitted via: fre:ac v1.0.31
# 
DISCID=9008890c
DTITLE=Michel_JONASZ - Changez_Tout
DYEAR=1975
DGENRE=Chanson
TTITLE0=Changez tout
TTITLE1=A l'hotel des femmes infideles
TTITLE2=Voyageuse
TTITLE3=Les ricochets
TTITLE4=L'homme orange
TTITLE5=Ne m'oublie pas
TTITLE6=Les vacances au bord de la mer
TTITLE7=Chanson pour tes yeux lilas
TTITLE8=Lac balaton
TTITLE9=Des barriques et des bidons
TTITLE10=Du miel et des violettes
TTITLE11=Sur la Lune
EXTD=YEAR: 1975
EXTT0=
EXTT1=
EXTT2=
EXTT3=
EXTT4=
EXTT5=
EXTT6=
EXTT7=
EXTT8=
EXTT9=
EXTT10=
EXTT11=
PLAYORDER=
